<svg xmlns="http://www.w3.org/2000/svg" width="1600" height="900" viewBox="0 0 1600 900" fill="none">
    <defs>
      <linearGradient id="heroBg" x1="0" y1="0" x2="1" y2="1">
        <stop offset="0%" stop-color="#041941"/>
        <stop offset="56%" stop-color="#06275F"/>
        <stop offset="100%" stop-color="#0B4BA8"/>
      </linearGradient>
      <radialGradient id="glow1" cx="0.25" cy="0.25" r="0.65">
        <stop offset="0%" stop-color="#1677FF" stop-opacity=".55"/>
        <stop offset="100%" stop-color="#1677FF" stop-opacity="0"/>
      </radialGradient>
      <radialGradient id="glow2" cx="0.88" cy="0.15" r="0.55">
        <stop offset="0%" stop-color="#4CC3FF" stop-opacity=".38"/>
        <stop offset="100%" stop-color="#4CC3FF" stop-opacity="0"/>
      </radialGradient>
      <filter id="shadow" x="-20%" y="-20%" width="140%" height="150%"><feDropShadow dx="0" dy="24" stdDeviation="28" flood-color="#010B20" flood-opacity=".28"/></filter>
      <filter id="smallShadow" x="-20%" y="-20%" width="140%" height="150%"><feDropShadow dx="0" dy="18" stdDeviation="18" flood-color="#010B20" flood-opacity=".22"/></filter>
      <pattern id="grid" width="64" height="64" patternUnits="userSpaceOnUse"><path d="M64 0H0v64" fill="none" stroke="#BFD4FF" stroke-opacity=".08" stroke-width="1"/></pattern>
    </defs>
    <rect width="1600" height="900" fill="url(#heroBg)"/>
    <rect width="1600" height="900" fill="url(#grid)"/>
    <circle cx="334" cy="172" r="450" fill="url(#glow1)"/>
    <circle cx="1342" cy="160" r="430" fill="url(#glow2)"/>
    <circle cx="172" cy="158" r="6" fill="#8EC5FF" opacity=".6"/><circle cx="244" cy="236" r="5" fill="#8EC5FF" opacity=".6"/><circle cx="156" cy="396" r="7" fill="#8EC5FF" opacity=".6"/><circle cx="350" cy="122" r="5" fill="#8EC5FF" opacity=".6"/><circle cx="476" cy="260" r="7" fill="#8EC5FF" opacity=".6"/><circle cx="392" cy="406" r="5" fill="#8EC5FF" opacity=".6"/><circle cx="566" cy="176" r="6" fill="#8EC5FF" opacity=".6"/><circle cx="612" cy="374" r="7" fill="#8EC5FF" opacity=".6"/><circle cx="1450" cy="180" r="6" fill="#8EC5FF" opacity=".6"/><circle cx="1480" cy="502" r="5" fill="#8EC5FF" opacity=".6"/><circle cx="1350" cy="782" r="6" fill="#8EC5FF" opacity=".6"/>
      <path d="M172 158L244 236L156 396M350 122L476 260L612 374M476 260L244 236M1450 180L1480 502L1350 782" stroke="#8EC5FF" stroke-width="2" opacity=".22"/>
    
    
    <g filter="url(#shadow)">
      <path d="M500 294l132 49v100c0 84-55 145-132 175-77-30-132-91-132-175V343l132-49z" fill="#FFFFFF" opacity=".96"/>
      <path d="M444 448l42 42 84-100" stroke="#13B981" stroke-width="25" stroke-linecap="round" stroke-linejoin="round"/>
      <path d="M500 324v257" stroke="#041941" stroke-width="5" opacity=".08"/>
    </g>
    
    
    <g filter="url(#shadow)">
      <rect x="820" y="120" width="560" height="470" rx="42" fill="#FFFFFF" opacity=".96"/>
      <rect x="858" y="164" width="160" height="38" rx="19" fill="#EAF3FF"/>
      <rect x="858" y="235" width="160" height="105" rx="24" fill="#041941" opacity=".97"/>
      <rect x="1040" y="235" width="138" height="105" rx="24" fill="#EAF3FF"/>
      <rect x="1200" y="235" width="138" height="105" rx="24" fill="#EAF3FF"/>
      <path d="M886 302c34-34 73-27 109-57" stroke="#1677FF" stroke-width="8" stroke-linecap="round"/>
      <circle cx="1000" cy="246" r="8" fill="#1677FF"/>
      <path d="M1065 290h80M1065 314h54" stroke="#041941" stroke-width="8" opacity=".3" stroke-linecap="round"/>
      <path d="M1225 290h80M1225 314h54" stroke="#041941" stroke-width="8" opacity=".3" stroke-linecap="round"/>
      <rect x="858" y="380" width="480" height="164" rx="28" fill="#F9FBFF" stroke="#C9D8F2" stroke-width="2"/>
      <path d="M900 500 L962 454 L1024 471 L1086 419 L1148 442 L1210 389 L1290 410" stroke="#1677FF" stroke-width="10" stroke-linecap="round" stroke-linejoin="round"/>
      <path d="M900 468h390" stroke="#C9D8F2" stroke-width="2"/>
      <path d="M900 429h390" stroke="#C9D8F2" stroke-width="2"/>
      <path d="M900 506h390" stroke="#C9D8F2" stroke-width="2"/>
    </g>
    <g filter="url(#smallShadow)">
      <rect x="1035" y="610" width="350" height="118" rx="30" fill="#FFFFFF"/>
      <circle cx="1098" cy="669" r="34" fill="#13B981" opacity=".16"/>
      <path d="M1084 670l13 13 26-31" stroke="#13B981" stroke-width="9" stroke-linecap="round" stroke-linejoin="round"/>
      <path d="M1158 650h156M1158 682h98" stroke="#041941" stroke-width="12" stroke-linecap="round" opacity=".55"/>
    </g>
    <g filter="url(#smallShadow)">
      <rect x="680" y="630" width="285" height="150" rx="34" fill="#041941"/>
      <path d="M720 680h128M720 717h80" stroke="#fff" stroke-width="12" stroke-linecap="round" opacity=".75"/>
      <circle cx="891" cy="704" r="34" fill="#1677FF" opacity=".95"/>
      <path d="M891 681v46M868 704h46" stroke="#fff" stroke-width="9" stroke-linecap="round"/>
    </g>
    
    <path d="M88 764c274-172 526-139 756-20s460 67 657-72" stroke="#BFD4FF" stroke-opacity=".16" stroke-width="8" stroke-linecap="round"/>
    </svg>