<svg xmlns="http://www.w3.org/2000/svg" width="720" height="180" viewBox="0 0 720 180" fill="none">
    
    <defs>
      <linearGradient id="brandGrad" x1="0" y1="0" x2="1" y2="1">
        <stop offset="0%" stop-color="#006CFF"/>
        <stop offset="100%" stop-color="#1677FF"/>
      </linearGradient>
      <linearGradient id="navyGrad" x1="0" y1="0" x2="1" y2="1">
        <stop offset="0%" stop-color="#041941"/>
        <stop offset="100%" stop-color="#06275F"/>
      </linearGradient>
      <linearGradient id="softBlue" x1="0" y1="0" x2="1" y2="1">
        <stop offset="0%" stop-color="#FFFFFF"/>
        <stop offset="100%" stop-color="#EAF3FF"/>
      </linearGradient>
      <filter id="shadow" x="-20%" y="-20%" width="140%" height="140%">
        <feDropShadow dx="0" dy="12" stdDeviation="18" flood-color="#031536" flood-opacity="0.16"/>
      </filter>
      <filter id="smallShadow" x="-30%" y="-30%" width="160%" height="160%">
        <feDropShadow dx="0" dy="6" stdDeviation="8" flood-color="#031536" flood-opacity="0.14"/>
      </filter>
    </defs>
    
    <g transform="translate(38 34)">
      <rect x="0" y="0" width="112" height="112" rx="30" fill="url(#brandGrad)"/>
      <path d="M34 29h33c19 0 32 12 32 29s-13 29-32 29H51v24H34V29zm17 18v22h16c10 0 16-4 16-11s-6-11-16-11H51z" fill="#fff"/>
      <path d="M45 100c26-2 45-12 57-31" stroke="#fff" stroke-width="7" stroke-linecap="round" opacity=".82"/>
      <circle cx="101" cy="68" r="5.8" fill="#fff"/>
    </g>
    <text x="178" y="106" fill="#041941" font-family="Inter, Segoe UI, Arial, sans-serif" font-size="72" font-weight="800" letter-spacing="-2">Pay</text>
    <text x="312" y="106" fill="#1677FF" font-family="Inter, Segoe UI, Arial, sans-serif" font-size="72" font-weight="800" letter-spacing="-2">Flux</text>
    <text x="184" y="136" fill="#7A8AAD" font-family="Inter, Segoe UI, Arial, sans-serif" font-size="18" font-weight="600" letter-spacing="2.6">SECURE DIGITAL BANKING</text>
    </svg>