<svg xmlns="http://www.w3.org/2000/svg" width="256" height="256" viewBox="0 0 256 256" fill="none">
    
    <defs>
      <linearGradient id="brandGrad" x1="0" y1="0" x2="1" y2="1">
        <stop offset="0%" stop-color="#006CFF"/>
        <stop offset="100%" stop-color="#1677FF"/>
      </linearGradient>
      <linearGradient id="navyGrad" x1="0" y1="0" x2="1" y2="1">
        <stop offset="0%" stop-color="#041941"/>
        <stop offset="100%" stop-color="#06275F"/>
      </linearGradient>
      <linearGradient id="softBlue" x1="0" y1="0" x2="1" y2="1">
        <stop offset="0%" stop-color="#FFFFFF"/>
        <stop offset="100%" stop-color="#EAF3FF"/>
      </linearGradient>
      <filter id="shadow" x="-20%" y="-20%" width="140%" height="140%">
        <feDropShadow dx="0" dy="12" stdDeviation="18" flood-color="#031536" flood-opacity="0.16"/>
      </filter>
      <filter id="smallShadow" x="-30%" y="-30%" width="160%" height="160%">
        <feDropShadow dx="0" dy="6" stdDeviation="8" flood-color="#031536" flood-opacity="0.14"/>
      </filter>
    </defs>
    <rect width="256" height="256" rx="64" fill="#F6F9FF"/>
    <circle cx="58" cy="58" r="42" fill="#006CFF" opacity=".12"/>
    <circle cx="208" cy="207" r="54" fill="#006CFF" opacity=".08"/>
    <g filter="url(#smallShadow)">
        <path d="M128 44l70 26v53c0 44-29 76-70 92-41-16-70-48-70-92V70l70-26z" fill="#fff" stroke="#C9D8F2" stroke-width="7"/>
        <path d="M96 128l22 22 45-54" stroke="#006CFF" stroke-width="14" stroke-linecap="round" stroke-linejoin="round"/>
        <path d="M128 62v126" stroke="#041941" stroke-width="5" opacity=".08"/>
        </g>
    <title>Shield</title>
    </svg>