<svg xmlns="http://www.w3.org/2000/svg" width="512" height="384" viewBox="0 0 512 384" fill="none">
    
    <defs>
      <linearGradient id="brandGrad" x1="0" y1="0" x2="1" y2="1">
        <stop offset="0%" stop-color="#006CFF"/>
        <stop offset="100%" stop-color="#1677FF"/>
      </linearGradient>
      <linearGradient id="navyGrad" x1="0" y1="0" x2="1" y2="1">
        <stop offset="0%" stop-color="#041941"/>
        <stop offset="100%" stop-color="#06275F"/>
      </linearGradient>
      <linearGradient id="softBlue" x1="0" y1="0" x2="1" y2="1">
        <stop offset="0%" stop-color="#FFFFFF"/>
        <stop offset="100%" stop-color="#EAF3FF"/>
      </linearGradient>
      <filter id="shadow" x="-20%" y="-20%" width="140%" height="140%">
        <feDropShadow dx="0" dy="12" stdDeviation="18" flood-color="#031536" flood-opacity="0.16"/>
      </filter>
      <filter id="smallShadow" x="-30%" y="-30%" width="160%" height="160%">
        <feDropShadow dx="0" dy="6" stdDeviation="8" flood-color="#031536" flood-opacity="0.14"/>
      </filter>
    </defs>
    <rect width="512" height="384" rx="40" fill="#F6F9FF"/>
    <circle cx="74" cy="78" r="54" fill="#1677FF" opacity=".10"/>
    <circle cx="442" cy="303" r="80" fill="#006CFF" opacity=".07"/>
    <path d="M72 303C133 259 185 250 249 277c74 32 121 6 184-43" stroke="#C9D8F2" stroke-width="5" stroke-linecap="round" opacity=".55"/>
    
        <ellipse cx="256" cy="320" rx="150" ry="28" fill="#C9D8F2" opacity=".45"/>
        <rect x="151" y="126" width="210" height="132" rx="30" fill="#fff" stroke="#C9D8F2" stroke-width="6" filter="url(#shadow)"/>
        <circle cx="217" cy="181" r="31" fill="#1677FF" opacity=".2"/>
        <circle cx="217" cy="172" r="20" fill="#1677FF"/>
        <path d="M179 229c7-26 20-39 38-39s31 13 38 39" fill="#1677FF" opacity=".9"/>
        <path d="M279 166h53M279 197h39" stroke="#041941" stroke-width="10" stroke-linecap="round" opacity=".55"/>
        <circle cx="361" cy="122" r="38" fill="#13B981"/>
        <path d="M361 102v40M341 122h40" stroke="#fff" stroke-width="10" stroke-linecap="round"/>
        
    <text x="256" y="357" text-anchor="middle" fill="#041941" font-family="Inter, Segoe UI, Arial, sans-serif" font-size="18" font-weight="800">No beneficiaries yet</text>
    </svg>