<svg xmlns="http://www.w3.org/2000/svg" width="256" height="256" viewBox="0 0 256 256" fill="none">
    
    <defs>
      <linearGradient id="brandGrad" x1="0" y1="0" x2="1" y2="1">
        <stop offset="0%" stop-color="#006CFF"/>
        <stop offset="100%" stop-color="#1677FF"/>
      </linearGradient>
      <linearGradient id="navyGrad" x1="0" y1="0" x2="1" y2="1">
        <stop offset="0%" stop-color="#041941"/>
        <stop offset="100%" stop-color="#06275F"/>
      </linearGradient>
      <linearGradient id="softBlue" x1="0" y1="0" x2="1" y2="1">
        <stop offset="0%" stop-color="#FFFFFF"/>
        <stop offset="100%" stop-color="#EAF3FF"/>
      </linearGradient>
      <filter id="shadow" x="-20%" y="-20%" width="140%" height="140%">
        <feDropShadow dx="0" dy="12" stdDeviation="18" flood-color="#031536" flood-opacity="0.16"/>
      </filter>
      <filter id="smallShadow" x="-30%" y="-30%" width="160%" height="160%">
        <feDropShadow dx="0" dy="6" stdDeviation="8" flood-color="#031536" flood-opacity="0.14"/>
      </filter>
    </defs>
    <rect width="256" height="256" rx="64" fill="#F6F9FF"/>
    <circle cx="58" cy="58" r="42" fill="#6D5DFB" opacity=".12"/>
    <circle cx="208" cy="207" r="54" fill="#006CFF" opacity=".08"/>
    <g filter="url(#smallShadow)">
        <path d="M128 43l70 26v55c0 44-30 75-70 91-40-16-70-47-70-91V69l70-26z" fill="#fff" stroke="#C9D8F2" stroke-width="7"/>
        <circle cx="128" cy="104" r="25" fill="#6D5DFB" opacity=".95"/>
        <path d="M86 171c7-28 21-42 42-42s35 14 42 42" fill="#6D5DFB" opacity=".95"/>
        <path d="M177 73l14 14 25-31" stroke="#13B981" stroke-width="9" stroke-linecap="round" stroke-linejoin="round"/>
        </g>
    <title>Admin Shield</title>
    </svg>